<?xml version="1.0" encoding="utf-8" ?>
<svg xmlns="http://www.w3.org/2000/svg" xmlns:xlink="http://www.w3.org/1999/xlink" width="1024" height="1024">
	<path fill="#5F5" transform="scale(2 2)" d="M122.127 71.0041C136.665 70.7979 142.56 73.6823 154.753 80.005L396.172 205.989C404.094 209.968 412.036 212.835 418.522 219.111C437.537 237.513 439.817 270.96 421.104 290.113C415.142 296.214 407.563 299.313 400.155 303.263L169.771 423.045C156.299 429.872 142.042 440.056 126.376 440.128C119.033 440.162 108.994 438.251 102.998 433.833C100.124 432.519 97.2994 430.297 94.9001 428.252C77.3119 413.26 78.274 395.646 78.3052 375.124L78.3123 129.185C78.3148 123.312 78.1081 117.355 78.9293 111.525C82.01 89.6538 99.9713 72.4905 122.127 71.0041Z"/>
	<path fill="#5F5" transform="scale(2 2)" d="M102.998 433.833C100.124 432.519 97.2994 430.297 94.9001 428.252C77.3119 413.26 78.274 395.646 78.3052 375.124L78.3123 129.185C78.3148 123.312 78.1081 117.355 78.9293 111.525C82.01 89.6538 99.9713 72.4905 122.127 71.0041C123.766 73.8451 121.364 81.6059 124.11 88.5267C125.481 91.9822 124.168 104.731 124.419 109.616C123.328 109.524 122.726 116.773 122.636 118.077C121.844 129.547 122.302 141.169 121.931 152.663L121.639 151.708L121.276 151.629C117.592 155.861 119.442 170.07 120.924 175.685C121.103 176.361 120.289 181.122 120.33 182.593C120.453 187.104 121.358 191.522 121.548 195.999C121.711 199.823 120.687 203.63 120.949 207.529C121.039 208.865 122.169 211.441 121.769 212.537L121.174 213.019L121.128 213.588C123.885 216.004 121.016 225.541 121.492 229.456C121.543 229.876 122.621 232.779 121.661 231.765L121.372 232.001C121.658 236.909 120.082 241.56 120.196 246.304C120.265 249.148 121.204 258.082 123.24 259.861L123.211 260.231L122.304 260.404C122.243 265.448 122.105 269.835 121.975 274.699C121.829 280.15 121.825 287.819 121.945 293.388C122.021 296.918 122.665 300.339 122.45 303.914C121.975 311.817 121.502 319.213 120.663 327.253C120.351 330.234 118.601 335.945 120.005 338.646L120.173 338.637L120.291 338.057C120.653 339.753 120.253 341.881 120.413 343.678C121.293 353.561 121.616 361.047 121.827 370.833C122.027 380.07 123.926 386.045 121.324 396.134C119.693 402.456 118.036 411.18 118.061 417.544C118.068 419.543 118.92 421.301 119.098 423.24C119.144 423.738 119.408 437.818 119.362 438.264C115.209 441.288 107.149 434.157 103.119 433.468L102.998 433.833Z"/>
	<path fill="#5F5" transform="scale(2 2)" d="M124.627 261.125C124.987 262.377 124.496 264.45 124.627 265.875C123.874 264.696 124.448 262.474 124.627 261.125Z"/>
	<path fill="#5F5" transform="scale(2 2)" d="M124.627 279.625C124.962 280.875 124.523 282.757 124.627 284.125C123.92 283.136 124.476 280.832 124.627 279.625Z"/>
	<path fill="#5F5" transform="scale(2 2)" d="M122.127 205.125C122.499 206.136 122.16 208.227 122.127 209.375C121.562 208.62 122.047 206.095 122.127 205.125Z"/>
</svg>
