<?xml version="1.0" encoding="utf-8" ?>
<svg xmlns="http://www.w3.org/2000/svg" xmlns:xlink="http://www.w3.org/1999/xlink" width="1024" height="1024">
	<path fill="#F55" transform="scale(2 2)" d="M429.124 162.755C431.449 175.336 430.765 188.249 430.764 200.987L430.765 301.587C430.764 316.338 431.694 331.532 428.617 346.045C419.978 386.793 386.869 419.172 345.758 425.725C333.827 427.627 321.678 427.056 309.646 427.047L209.234 427.04C194.066 427.041 178.67 428.022 163.735 424.888C121.649 416.059 89.579 382.728 82.7372 340.471C80.7794 328.379 81.1506 316.2 81.1505 303.998L81.1488 209.941C81.1451 193.29 80.4036 176.687 83.8623 160.291C92.7722 118.054 128.62 86.701 170.501 79.8875C181.173 78.1513 192.058 78.5834 202.831 78.5889L295.625 78.5852C312.384 78.5842 329.297 77.7559 345.784 81.286C371.953 86.8893 398.587 103.303 413.289 126.012C420.322 135.362 426.945 151.266 429.124 162.755Z"/>
	<path fill="#F55" transform="scale(2 2)" d="M413.289 126.012C420.322 135.362 426.945 151.266 429.124 162.755C428.367 162.664 428.1 162.754 427.563 162.188L428.036 161.331L428.11 161.439C428.019 160.798 427.918 160.75 427.471 160.268L427.589 160.669L426.844 160.72L427.433 160.997C428.004 166.928 423.24 165.077 424.577 154.371L424.882 154.33L426.277 155.944L426.608 155.43C426.601 155.415 426.59 155.401 426.586 155.385C425.259 148.751 413.226 126.663 413.289 126.012Z"/>
	<path fill="#F55" transform="scale(2 2)" d="M425.816 178.687C433.051 180.596 426.453 185.016 428.529 188.642C431.516 193.86 429.319 223.496 427.933 229.651C426.281 231.006 427.423 231.806 427.629 233.631L428.058 233.411C428.471 233.681 428.235 234.437 428.207 234.926C428.044 237.777 428.503 245.844 427.987 247.681C427.202 250.474 426.492 249.425 427.305 252.563L427.099 252.897L426.541 252.563C426.104 259.827 427.906 266.971 427.241 274.288L426.837 274.582C424.718 274.345 424.846 270.129 424.877 268.538L424.691 268.135L425.428 267.246C423.127 263.566 426.55 260.73 423.164 259.022L423.924 257.02C423.75 256.017 421.643 253.676 420.724 252.854L420.759 252.494C421.639 252.01 422.553 251.838 422.342 250.674C420.815 242.225 424.368 237.096 424.71 231.443L424.451 231.363C418.859 233.443 422.751 217.654 421.441 213.341C420.182 209.197 421.078 204.666 420.392 200.454C419.86 197.185 417.925 193.823 417.93 190.523C417.934 188.408 424.049 180.348 425.816 178.687Z"/>
	<path fill="#F55" transform="scale(2 2)" d="M427.123 164.575C428.381 165.251 427.982 166.067 427.123 166.933L426.733 166.927C426.549 166.12 426.892 165.345 427.123 164.575Z"/>
</svg>
